<svg xmlns="http://www.w3.org/2000/svg" xmlns:xlink="http://www.w3.org/1999/xlink" viewBox="0 0 750.48 750.49"><defs><style>.cls-1{fill:none;}.cls-2{fill:url(#radial-gradient);}.cls-3{fill:url(#radial-gradient-2);}.cls-4{fill:url(#radial-gradient-3);}</style><radialGradient id="radial-gradient" cx="426.41" cy="157.86" r="117.34" gradientUnits="userSpaceOnUse"><stop offset="0" stop-color="#fff200"/><stop offset="0.75" stop-color="#f47a4f"/></radialGradient><radialGradient id="radial-gradient-2" cx="187.62" cy="375.25" r="296.66" gradientUnits="userSpaceOnUse"><stop offset="0" stop-color="#d7df23"/><stop offset="0.56" stop-color="#f9a458"/></radialGradient><radialGradient id="radial-gradient-3" cx="511.4" cy="510.91" r="329.25" gradientUnits="userSpaceOnUse"><stop offset="0.32" stop-color="#fff200"/><stop offset="0.95" stop-color="#f47a4f"/></radialGradient></defs><g id="Layer_2" data-name="Layer 2"><g id="Layer_1-2" data-name="Layer 1"><rect class="cls-1" x="102.34" y="272.91" width="34.11" height="68.22"/><rect class="cls-1" x="136.45" y="272.91" width="68.23" height="68.23"/><rect class="cls-1" x="204.68" y="272.91" width="68.23" height="68.23"/><rect class="cls-1" x="272.9" y="272.91" width="68.23" height="68.23"/><rect class="cls-1" x="102.34" y="238.79" width="34.11" height="68.23"/><rect class="cls-1" x="136.45" y="238.79" width="68.23" height="68.23"/><rect class="cls-1" x="204.68" y="238.79" width="68.23" height="68.23"/><rect class="cls-1" x="272.9" y="238.79" width="68.23" height="68.23"/><rect class="cls-1" x="102.34" y="307.02" width="34.11" height="68.23"/><rect class="cls-1" x="136.45" y="307.02" width="68.23" height="68.23"/><rect class="cls-1" x="204.68" y="307.02" width="68.23" height="68.23"/><path class="cls-1" d="M341.13,307v37.57a237.89,237.89,0,0,0-25.42,30.66H272.9V307Z"/><rect class="cls-1" x="307.01" y="204.68" width="68.23" height="68.23"/><rect class="cls-1" x="102.34" y="272.91" width="68.22" height="68.22"/><rect class="cls-1" x="170.56" y="272.91" width="68.23" height="68.23"/><rect class="cls-1" x="238.79" y="272.91" width="68.23" height="68.23"/><path class="cls-1" d="M375.24,272.91v42.81a238.41,238.41,0,0,0-30.65,25.41H307V272.91Z"/><rect class="cls-1" x="102.34" y="238.79" width="68.22" height="68.23"/><rect class="cls-1" x="170.56" y="238.79" width="68.23" height="68.23"/><rect class="cls-1" x="238.79" y="238.79" width="68.23" height="68.23"/><rect class="cls-1" x="307.01" y="238.79" width="68.23" height="68.23"/><rect class="cls-1" x="102.34" y="307.02" width="68.22" height="68.23"/><rect class="cls-1" x="170.56" y="307.02" width="68.23" height="68.23"/><rect class="cls-1" x="238.79" y="307.02" width="68.23" height="68.23"/><path class="cls-1" d="M375.24,307v8.7a238.41,238.41,0,0,0-30.65,25.41c-1.17,1.13-2.33,2.29-3.46,3.46a237.89,237.89,0,0,0-25.42,30.66H307V307Z"/><rect class="cls-1" x="477.58" width="34.11" height="68.23"/><rect class="cls-1" x="511.69" width="68.23" height="68.23"/><rect class="cls-1" x="579.92" width="68.23" height="68.23"/><rect class="cls-1" x="648.14" width="68.23" height="68.23"/><rect class="cls-1" x="477.58" y="68.23" width="34.11" height="68.23"/><rect class="cls-1" x="511.69" y="68.23" width="68.23" height="68.23"/><rect class="cls-1" x="579.92" y="68.23" width="68.23" height="68.23"/><rect class="cls-1" x="648.14" y="68.23" width="68.23" height="68.23"/><rect class="cls-1" x="477.58" y="136.46" width="34.11" height="68.22"/><rect class="cls-1" x="511.69" y="136.46" width="68.23" height="68.23"/><rect class="cls-1" x="579.92" y="136.46" width="68.23" height="68.23"/><rect class="cls-1" x="648.14" y="136.46" width="68.23" height="68.23"/><rect class="cls-1" x="477.58" y="204.68" width="34.11" height="68.23"/><rect class="cls-1" x="511.69" y="204.68" width="68.23" height="68.23"/><rect class="cls-1" x="579.92" y="204.68" width="68.23" height="68.23"/><rect class="cls-1" x="648.14" y="204.68" width="68.23" height="68.23"/><path class="cls-1" d="M511.69,272.91a239.85,239.85,0,0,0-34.11,2.42v-2.42Z"/><path class="cls-1" d="M579.92,272.91v9.89a239.05,239.05,0,0,0-68.23-9.89Z"/><path class="cls-1" d="M648.14,272.91v42.81q-6.54-4.58-13.4-8.7a238.31,238.31,0,0,0-54.82-24.22v-9.89Z"/><path class="cls-1" d="M716.37,272.91v68.22H678.79a238.41,238.41,0,0,0-30.65-25.41V272.91Z"/><rect class="cls-1" x="477.58" y="34.12" width="34.11" height="68.22"/><rect class="cls-1" x="511.69" y="34.12" width="68.23" height="68.23"/><rect class="cls-1" x="579.92" y="34.12" width="68.23" height="68.23"/><rect class="cls-1" x="648.14" y="34.12" width="68.23" height="68.23"/><rect class="cls-1" x="477.58" y="102.34" width="34.11" height="68.23"/><rect class="cls-1" x="511.69" y="102.34" width="68.23" height="68.23"/><rect class="cls-1" x="579.92" y="102.34" width="68.23" height="68.23"/><rect class="cls-1" x="648.14" y="102.34" width="68.23" height="68.23"/><rect class="cls-1" x="477.58" y="170.57" width="34.11" height="68.22"/><rect class="cls-1" x="511.69" y="170.57" width="68.23" height="68.23"/><rect class="cls-1" x="579.92" y="170.57" width="68.23" height="68.23"/><rect class="cls-1" x="648.14" y="170.57" width="68.23" height="68.23"/><path class="cls-1" d="M511.69,238.79v34.12a239.85,239.85,0,0,0-34.11,2.42V238.79Z"/><path class="cls-1" d="M579.92,238.79v44a239.05,239.05,0,0,0-68.23-9.89V238.79Z"/><path class="cls-1" d="M648.14,238.79V307h-13.4a238.31,238.31,0,0,0-54.82-24.22v-44Z"/><rect class="cls-1" x="648.14" y="238.79" width="68.23" height="68.23"/><path class="cls-1" d="M648.14,307v8.7q-6.54-4.58-13.4-8.7Z"/><path class="cls-1" d="M716.37,307v68.23h-8.7a238.41,238.41,0,0,0-25.41-30.65q-1.71-1.75-3.47-3.47a238.41,238.41,0,0,0-30.65-25.41V307Z"/><rect class="cls-1" x="477.58" width="68.22" height="68.23"/><rect class="cls-1" x="545.8" width="68.23" height="68.23"/><rect class="cls-1" x="614.03" width="68.23" height="68.23"/><rect class="cls-1" x="682.26" width="68.23" height="68.23"/><rect class="cls-1" x="477.58" y="68.23" width="68.22" height="68.23"/><rect class="cls-1" x="545.8" y="68.23" width="68.23" height="68.23"/><rect class="cls-1" x="614.03" y="68.23" width="68.23" height="68.23"/><rect class="cls-1" x="682.26" y="68.23" width="68.23" height="68.23"/><rect class="cls-1" x="477.58" y="136.46" width="68.22" height="68.22"/><rect class="cls-1" x="545.8" y="136.46" width="68.23" height="68.23"/><rect class="cls-1" x="614.03" y="136.46" width="68.23" height="68.23"/><rect class="cls-1" x="682.26" y="136.46" width="68.23" height="68.23"/><rect class="cls-1" x="477.58" y="204.68" width="68.22" height="68.23"/><rect class="cls-1" x="545.8" y="204.68" width="68.23" height="68.23"/><rect class="cls-1" x="614.03" y="204.68" width="68.23" height="68.23"/><rect class="cls-1" x="682.26" y="204.68" width="68.23" height="68.23"/><path class="cls-1" d="M511.69,272.91a239.85,239.85,0,0,0-34.11,2.42v-2.42Z"/><path class="cls-1" d="M545.8,272.91v2.42a239.85,239.85,0,0,0-34.11-2.42Z"/><path class="cls-1" d="M614,272.91v23a235.34,235.34,0,0,0-34.11-13.1,238,238,0,0,0-34.12-7.47v-2.42Z"/><path class="cls-1" d="M682.26,272.91v68.22h-3.47a238.41,238.41,0,0,0-30.65-25.41q-6.54-4.58-13.4-8.7A235,235,0,0,0,614,295.9v-23Z"/><rect class="cls-1" x="682.26" y="272.91" width="68.23" height="68.23"/><rect class="cls-1" x="477.58" y="34.12" width="68.22" height="68.22"/><rect class="cls-1" x="545.8" y="34.12" width="68.23" height="68.23"/><rect class="cls-1" x="614.03" y="34.12" width="68.23" height="68.23"/><rect class="cls-1" x="682.26" y="34.12" width="68.23" height="68.23"/><rect class="cls-1" x="477.58" y="102.34" width="68.22" height="68.23"/><rect class="cls-1" x="545.8" y="102.34" width="68.23" height="68.23"/><rect class="cls-1" x="614.03" y="102.34" width="68.23" height="68.23"/><rect class="cls-1" x="682.26" y="102.34" width="68.23" height="68.23"/><rect class="cls-1" x="477.58" y="170.57" width="68.22" height="68.22"/><rect class="cls-1" x="545.8" y="170.57" width="68.23" height="68.23"/><rect class="cls-1" x="614.03" y="170.57" width="68.23" height="68.23"/><rect class="cls-1" x="682.26" y="170.57" width="68.23" height="68.23"/><path class="cls-2" d="M477.58,0V275.33a237.87,237.87,0,0,0-34.11,7.47A238.16,238.16,0,0,0,388.64,307q-6.86,4.13-13.4,8.7V0Z"/><path class="cls-1" d="M545.8,238.79v36.54a241.6,241.6,0,0,0-68.22,0V238.79Z"/><path class="cls-1" d="M614,238.79V295.9a235.34,235.34,0,0,0-34.11-13.1,238,238,0,0,0-34.12-7.47V238.79Z"/><path class="cls-1" d="M682.26,238.79V307H634.74A235,235,0,0,0,614,295.9V238.79Z"/><rect class="cls-1" x="682.26" y="238.79" width="68.23" height="68.23"/><path class="cls-1" d="M682.26,307V344.6q-1.71-1.75-3.47-3.47a238.41,238.41,0,0,0-30.65-25.41q-6.54-4.58-13.4-8.7Z"/><path class="cls-1" d="M750.48,307v68.23H707.67a238.41,238.41,0,0,0-25.41-30.65V307Z"/><rect class="cls-1" x="102.34" y="375.25" width="34.11" height="68.22"/><rect class="cls-1" x="136.45" y="375.25" width="68.23" height="68.23"/><rect class="cls-1" x="204.68" y="375.25" width="68.23" height="68.23"/><path class="cls-1" d="M315.71,375.25q-4.57,6.54-8.7,13.4c-.73,1.2-1.45,2.42-2.15,3.64q-4.83,8.32-9,17.07a235.34,235.34,0,0,0-13.1,34.11H272.9V375.25Z"/><rect class="cls-1" x="102.34" y="443.47" width="34.11" height="68.23"/><rect class="cls-1" x="136.45" y="443.47" width="68.23" height="68.23"/><rect class="cls-1" x="204.68" y="443.47" width="68.23" height="68.23"/><path class="cls-1" d="M282.79,443.47a238.92,238.92,0,0,0-9.89,68.23V443.47Z"/><path class="cls-1" d="M9.89,579.92H0V511.7a238.92,238.92,0,0,0,9.89,68.22Z"/><path class="cls-1" d="M136.45,511.7v68.22H120.6a135,135,0,0,1-14-34.11,136.48,136.48,0,0,1-4.3-34.11Z"/><rect class="cls-1" x="136.45" y="511.7" width="68.23" height="68.23"/><rect class="cls-1" x="204.68" y="511.7" width="68.23" height="68.23"/><path class="cls-1" d="M282.79,579.92H272.9V511.7a238.92,238.92,0,0,0,9.89,68.22Z"/><path class="cls-1" d="M42.81,648.15H0V579.92H9.89A236.46,236.46,0,0,0,23,614Q28,624.69,34.11,634.75,38.24,641.61,42.81,648.15Z"/><path class="cls-1" d="M136.45,579.92v22a136.49,136.49,0,0,1-15.85-22Z"/><path class="cls-1" d="M204.68,579.92v63.93A136.18,136.18,0,0,1,148.53,614,137.71,137.71,0,0,1,136.45,602v-22Z"/><path class="cls-1" d="M272.9,579.92v63.93a137.44,137.44,0,0,1-68.22,0V579.92Z"/><path class="cls-1" d="M304.86,631.11a135.13,135.13,0,0,1-32,12.74V579.92h9.89A236.46,236.46,0,0,0,295.88,614Q300,622.78,304.86,631.11Z"/><path class="cls-1" d="M68.22,678.8v37.57H0V648.15H42.81A238.41,238.41,0,0,0,68.22,678.8Z"/><path class="cls-1" d="M115.72,716.37H68.22V678.8c1.13,1.17,2.29,2.33,3.46,3.46a237.89,237.89,0,0,0,30.66,25.42Q108.87,712.26,115.72,716.37Z"/><rect class="cls-1" x="102.34" y="409.36" width="34.11" height="68.22"/><rect class="cls-1" x="136.45" y="409.36" width="68.23" height="68.23"/><rect class="cls-1" x="204.68" y="409.36" width="68.23" height="68.23"/><path class="cls-1" d="M295.89,409.36a235.34,235.34,0,0,0-13.1,34.11,237.87,237.87,0,0,0-7.47,34.11H272.9V409.36Z"/><path class="cls-1" d="M2.42,545.81H0V511.7A239.85,239.85,0,0,0,2.42,545.81Z"/><path class="cls-1" d="M136.45,477.58v68.23H106.64a136.48,136.48,0,0,1-4.3-34.11V477.58Z"/><rect class="cls-1" x="136.45" y="477.58" width="68.23" height="68.23"/><rect class="cls-1" x="204.68" y="477.58" width="68.23" height="68.23"/><path class="cls-1" d="M275.32,545.81H272.9V511.7A239.85,239.85,0,0,0,275.32,545.81Z"/><path class="cls-1" d="M275.32,477.58a240.09,240.09,0,0,0-2.42,34.12V477.58Z"/><path class="cls-1" d="M23,614H0V545.81H2.42A237.09,237.09,0,0,0,23,614Z"/><path class="cls-1" d="M136.45,545.81V602a136.49,136.49,0,0,1-15.85-22,135,135,0,0,1-14-34.11Z"/><path class="cls-1" d="M204.68,545.81V614H148.53A137.71,137.71,0,0,1,136.45,602V545.81Z"/><rect class="cls-1" x="204.68" y="545.81" width="68.23" height="68.23"/><path class="cls-1" d="M295.88,614h-23V545.81h2.42A237.09,237.09,0,0,0,295.88,614Z"/><path class="cls-1" d="M68.22,678.8v3.46H0V614H23Q28,624.69,34.11,634.75q4.13,6.86,8.7,13.4A238.41,238.41,0,0,0,68.22,678.8Z"/><path class="cls-1" d="M71.68,682.26H68.22V678.8C69.35,680,70.51,681.13,71.68,682.26Z"/><path class="cls-1" d="M204.68,614v29.82A136.18,136.18,0,0,1,148.53,614Z"/><path class="cls-1" d="M272.9,614v29.82a137.44,137.44,0,0,1-68.22,0V614Z"/><path class="cls-1" d="M304.86,631.11a135.13,135.13,0,0,1-32,12.74V614h23Q300,622.78,304.86,631.11Z"/><rect class="cls-1" y="682.26" width="68.23" height="68.23"/><path class="cls-1" d="M136.45,727.5v23H68.22V682.26h3.46a237.89,237.89,0,0,0,30.66,25.42q6.52,4.58,13.38,8.69Q125.77,722.43,136.45,727.5Z"/><path class="cls-1" d="M204.68,748.07v2.42H136.45v-23a235.34,235.34,0,0,0,34.11,13.1A238,238,0,0,0,204.68,748.07Z"/><path class="cls-1" d="M238.79,750.49H204.68v-2.42A239.85,239.85,0,0,0,238.79,750.49Z"/><path class="cls-1" d="M272.9,748.07v2.42H238.79A239.85,239.85,0,0,0,272.9,748.07Z"/><path class="cls-1" d="M341.13,727.5v23H272.9v-2.42A237.87,237.87,0,0,0,307,740.6,235,235,0,0,0,341.13,727.5Z"/><rect class="cls-1" x="102.34" y="375.25" width="68.22" height="68.22"/><rect class="cls-1" x="170.56" y="375.25" width="68.23" height="68.23"/><path class="cls-1" d="M307,375.25v13.4c-.73,1.2-1.45,2.42-2.15,3.64q-4.83,8.32-9,17.07a235.34,235.34,0,0,0-13.1,34.11h-44V375.25Z"/><path class="cls-1" d="M315.71,375.25q-4.57,6.54-8.7,13.4v-13.4Z"/><rect class="cls-1" x="102.34" y="443.47" width="68.22" height="68.23"/><rect class="cls-1" x="170.56" y="443.47" width="68.23" height="68.23"/><path class="cls-1" d="M282.79,443.47a238.92,238.92,0,0,0-9.89,68.23H238.79V443.47Z"/><path class="cls-1" d="M170.56,511.7v68.22h-50a135,135,0,0,1-14-34.11,136.48,136.48,0,0,1-4.3-34.11Z"/><rect class="cls-1" x="170.56" y="511.7" width="68.23" height="68.23"/><path class="cls-1" d="M282.79,579.92h-44V511.7H272.9a238.92,238.92,0,0,0,9.89,68.22Z"/><path class="cls-1" d="M42.81,648.15h-8.7v-13.4Q38.24,641.61,42.81,648.15Z"/><path class="cls-1" d="M170.56,579.92v50a135.94,135.94,0,0,1-22-15.86,136.9,136.9,0,0,1-27.93-34.11Z"/><path class="cls-1" d="M238.79,579.92v68.23a135.86,135.86,0,0,1-68.23-18.26v-50Z"/><path class="cls-1" d="M304.86,631.11a135.81,135.81,0,0,1-66.07,17V579.92h44A236.46,236.46,0,0,0,295.88,614Q300,622.78,304.86,631.11Z"/><path class="cls-1" d="M102.34,707.68v8.69H34.11V648.15h8.7A238.41,238.41,0,0,0,68.22,678.8c1.13,1.17,2.29,2.33,3.46,3.46A237.89,237.89,0,0,0,102.34,707.68Z"/><path class="cls-1" d="M115.72,716.37H102.34v-8.69Q108.87,712.26,115.72,716.37Z"/><path class="cls-1" d="M375.24,707.68v8.69H361.86Q368.72,712.25,375.24,707.68Z"/><rect class="cls-1" x="102.34" y="409.36" width="68.22" height="68.22"/><rect class="cls-1" x="170.56" y="409.36" width="68.23" height="68.23"/><path class="cls-1" d="M295.89,409.36a235.34,235.34,0,0,0-13.1,34.11,237.87,237.87,0,0,0-7.47,34.11H238.79V409.36Z"/><path class="cls-1" d="M170.56,477.58v68.23H106.64a136.48,136.48,0,0,1-4.3-34.11V477.58Z"/><rect class="cls-1" x="170.56" y="477.58" width="68.23" height="68.23"/><path class="cls-1" d="M272.9,511.7a239.85,239.85,0,0,0,2.42,34.11H238.79V477.58h36.53A240.09,240.09,0,0,0,272.9,511.7Z"/><path class="cls-1" d="M170.56,545.81V614h-22a136.9,136.9,0,0,1-27.93-34.11,135,135,0,0,1-14-34.11Z"/><rect class="cls-1" x="170.56" y="545.81" width="68.23" height="68.23"/><path class="cls-1" d="M295.88,614H238.79V545.81h36.53A237.09,237.09,0,0,0,295.88,614Z"/><path class="cls-1" d="M71.68,682.26H34.11V634.75q4.13,6.86,8.7,13.4A238.41,238.41,0,0,0,68.22,678.8C69.35,680,70.51,681.13,71.68,682.26Z"/><path class="cls-1" d="M170.56,614v15.86a135.94,135.94,0,0,1-22-15.86Z"/><path class="cls-1" d="M238.79,614v34.12a135.86,135.86,0,0,1-68.23-18.26V614Z"/><path class="cls-1" d="M304.86,631.11a135.81,135.81,0,0,1-66.07,17V614h57.09Q300,622.78,304.86,631.11Z"/><path class="cls-1" d="M102.34,707.68v42.81H34.11V682.26H71.68A237.89,237.89,0,0,0,102.34,707.68Z"/><path class="cls-1" d="M170.56,740.6v9.89H102.34V707.68q6.52,4.58,13.38,8.69,10.05,6.06,20.73,11.13A235.34,235.34,0,0,0,170.56,740.6Z"/><path class="cls-1" d="M238.79,750.49H170.56V740.6a239.05,239.05,0,0,0,68.23,9.89Z"/><path class="cls-1" d="M307,740.6v9.89H238.79A238.92,238.92,0,0,0,307,740.6Z"/><path class="cls-1" d="M375.24,707.68v42.81H307V740.6a235,235,0,0,0,34.12-13.1q10.67-5.06,20.73-11.13Q368.72,712.25,375.24,707.68Z"/><path class="cls-1" d="M511.69,375.25v68.22H477.58V379.55A136.48,136.48,0,0,1,511.69,375.25Z"/><path class="cls-1" d="M579.92,393.51v50H511.69V375.25a135.86,135.86,0,0,1,68.23,18.26Z"/><path class="cls-1" d="M629.88,443.47h-50v-50a136.41,136.41,0,0,1,22,15.85A137.94,137.94,0,0,1,614,421.45,136.41,136.41,0,0,1,629.88,443.47Z"/><path class="cls-1" d="M716.37,375.25v13.4q-4.12-6.86-8.7-13.4Z"/><rect class="cls-1" x="477.58" y="443.47" width="34.11" height="68.23"/><rect class="cls-1" x="511.69" y="443.47" width="68.23" height="68.23"/><path class="cls-1" d="M648.14,477.58V511.7H579.92V443.47h50a135.37,135.37,0,0,1,14,34.11Z"/><rect class="cls-1" x="648.14" y="477.58" width="68.23" height="34.12"/><path class="cls-1" d="M511.69,511.7v68.22h-44a238.92,238.92,0,0,0,9.89-68.22Z"/><rect class="cls-1" x="511.69" y="511.7" width="68.23" height="68.23"/><path class="cls-1" d="M648.14,511.7v34.11h-4.3a135,135,0,0,1-14,34.11h-50V511.7Z"/><rect class="cls-1" x="648.14" y="511.7" width="68.23" height="34.11"/><path class="cls-1" d="M511.69,579.92v68.23a135.81,135.81,0,0,1-66.07-17q4.83-8.33,9-17.08a236.46,236.46,0,0,0,13.09-34.11Z"/><path class="cls-1" d="M579.92,579.92v50a135.86,135.86,0,0,1-68.23,18.26V579.92Z"/><path class="cls-1" d="M629.88,579.92a137.06,137.06,0,0,1-50,50v-50Z"/><path class="cls-1" d="M716.37,634.75v13.4h-8.7Q712.25,641.61,716.37,634.75Z"/><path class="cls-1" d="M388.62,716.37H375.24v-8.69Q381.77,712.26,388.62,716.37Z"/><path class="cls-1" d="M648.14,707.68v8.69H634.76Q641.62,712.25,648.14,707.68Z"/><path class="cls-1" d="M716.37,648.15v68.22H648.14v-8.69a237.89,237.89,0,0,0,30.66-25.42c1.17-1.13,2.33-2.29,3.46-3.46a238.41,238.41,0,0,0,25.41-30.65Z"/><rect class="cls-1" x="477.58" y="409.36" width="34.11" height="68.22"/><rect class="cls-1" x="511.69" y="409.36" width="68.23" height="68.23"/><path class="cls-1" d="M643.83,477.58H579.92V409.36h22A137.94,137.94,0,0,1,614,421.45a136.08,136.08,0,0,1,29.8,56.13Z"/><path class="cls-1" d="M511.69,477.58v68.23H475.16a239.85,239.85,0,0,0,2.42-34.11V477.58Z"/><rect class="cls-1" x="511.69" y="477.58" width="68.23" height="68.23"/><rect class="cls-1" x="579.92" y="477.58" width="68.22" height="68.23"/><rect class="cls-1" x="648.14" y="477.58" width="68.23" height="68.23"/><path class="cls-1" d="M511.69,545.81V614H454.6a237.09,237.09,0,0,0,20.56-68.22Z"/><rect class="cls-1" x="511.69" y="545.81" width="68.23" height="68.23"/><path class="cls-1" d="M643.84,545.81a135,135,0,0,1-14,34.11A136.9,136.9,0,0,1,602,614h-22V545.81Z"/><path class="cls-1" d="M511.69,614v34.12a135.81,135.81,0,0,1-66.07-17q4.83-8.33,9-17.08Z"/><path class="cls-1" d="M579.92,614v15.86a135.86,135.86,0,0,1-68.23,18.26V614Z"/><path class="cls-1" d="M602,614a135.94,135.94,0,0,1-22,15.86V614Z"/><path class="cls-1" d="M716.37,634.75v47.51H678.8c1.17-1.13,2.33-2.29,3.46-3.46a238.41,238.41,0,0,0,25.41-30.65Q712.25,641.61,716.37,634.75Z"/><path class="cls-1" d="M443.47,740.6v9.89H375.24V707.68q6.52,4.58,13.38,8.69,10,6.06,20.73,11.13A235,235,0,0,0,443.47,740.6Z"/><path class="cls-1" d="M511.69,750.49H443.47V740.6a238.92,238.92,0,0,0,68.22,9.89Z"/><path class="cls-1" d="M579.92,740.6v9.89H511.69a239.05,239.05,0,0,0,68.23-9.89Z"/><path class="cls-1" d="M648.14,707.68v42.81H579.92V740.6A235.34,235.34,0,0,0,614,727.5q10.66-5.06,20.73-11.13Q641.62,712.25,648.14,707.68Z"/><path class="cls-1" d="M716.37,682.26v68.23H648.14V707.68a237.89,237.89,0,0,0,30.66-25.42Z"/><path class="cls-1" d="M545.8,379.55v63.92H477.58V379.55a137.44,137.44,0,0,1,68.22,0Z"/><path class="cls-1" d="M614,421.45v22H545.8V379.55a136.19,136.19,0,0,1,56.14,29.81A137.94,137.94,0,0,1,614,421.45Z"/><path class="cls-1" d="M629.88,443.47H614v-22A136.41,136.41,0,0,1,629.88,443.47Z"/><path class="cls-1" d="M750.48,375.25v68.22h-9.89a238.31,238.31,0,0,0-24.22-54.82q-4.12-6.86-8.7-13.4Z"/><rect class="cls-1" x="477.58" y="443.47" width="68.22" height="68.23"/><rect class="cls-1" x="545.8" y="443.47" width="68.23" height="68.23"/><path class="cls-1" d="M682.26,477.58V511.7H614V443.47h15.85a135.37,135.37,0,0,1,14,34.11Z"/><path class="cls-1" d="M750.48,443.47V511.7H682.26V477.58h65.8a237.87,237.87,0,0,0-7.47-34.11Z"/><path class="cls-1" d="M477.58,511.7v68.22h-9.89a238.92,238.92,0,0,0,9.89-68.22Z"/><rect class="cls-1" x="477.58" y="511.7" width="68.23" height="68.23"/><rect class="cls-1" x="545.8" y="511.7" width="68.23" height="68.23"/><path class="cls-1" d="M682.26,511.7v34.11H643.84a135,135,0,0,1-14,34.11H614V511.7Z"/><path class="cls-1" d="M750.48,511.7v68.22h-9.89a237.87,237.87,0,0,0,7.47-34.11h-65.8V511.7Z"/><path class="cls-1" d="M477.58,579.92v63.93a135.13,135.13,0,0,1-32-12.74q4.83-8.33,9-17.08a236.46,236.46,0,0,0,13.09-34.11Z"/><path class="cls-1" d="M545.8,579.92v63.93a137.44,137.44,0,0,1-68.22,0V579.92Z"/><path class="cls-1" d="M614,579.92v22A137.71,137.71,0,0,1,602,614a136.18,136.18,0,0,1-56.15,29.82V579.92Z"/><path class="cls-1" d="M629.88,579.92A136.49,136.49,0,0,1,614,602v-22Z"/><path class="cls-1" d="M750.48,579.92v68.23H707.67q4.58-6.54,8.7-13.4Q722.43,624.7,727.5,614a236.46,236.46,0,0,0,13.09-34.11Z"/><path class="cls-1" d="M682.26,678.8v37.57h-47.5q6.86-4.12,13.38-8.69a237.89,237.89,0,0,0,30.66-25.42C680,681.13,681.13,680,682.26,678.8Z"/><path class="cls-1" d="M750.48,648.15v68.22H682.26V678.8a238.41,238.41,0,0,0,25.41-30.65Z"/><rect class="cls-1" x="477.58" y="409.36" width="68.22" height="68.22"/><path class="cls-1" d="M614,421.45v56.13H545.8V409.36h56.14A137.94,137.94,0,0,1,614,421.45Z"/><path class="cls-1" d="M643.83,477.58H614V421.45a136.08,136.08,0,0,1,29.8,56.13Z"/><path class="cls-1" d="M750.48,409.36v68.22h-2.42a237.87,237.87,0,0,0-7.47-34.11,235.34,235.34,0,0,0-13.1-34.11Z"/><path class="cls-1" d="M477.58,511.7v34.11h-2.42A239.85,239.85,0,0,0,477.58,511.7Z"/><rect class="cls-1" x="477.58" y="477.58" width="68.22" height="68.23"/><rect class="cls-1" x="545.8" y="477.58" width="68.23" height="68.23"/><rect class="cls-1" x="614.03" y="477.58" width="68.23" height="68.23"/><rect class="cls-1" x="682.26" y="477.58" width="68.22" height="68.23"/><path class="cls-1" d="M477.58,545.81V614h-23a237.09,237.09,0,0,0,20.56-68.22Z"/><rect class="cls-1" x="477.58" y="545.81" width="68.23" height="68.23"/><path class="cls-1" d="M614,545.81V602A137.71,137.71,0,0,1,602,614H545.8V545.81Z"/><path class="cls-1" d="M643.84,545.81a135,135,0,0,1-14,34.11A136.49,136.49,0,0,1,614,602V545.81Z"/><path class="cls-1" d="M750.48,545.81V614h-23a237.09,237.09,0,0,0,20.56-68.22Z"/><path class="cls-1" d="M477.58,614v29.82a135.13,135.13,0,0,1-32-12.74q4.83-8.33,9-17.08Z"/><path class="cls-1" d="M545.8,614v29.82a137.44,137.44,0,0,1-68.22,0V614Z"/><path class="cls-1" d="M602,614a136.18,136.18,0,0,1-56.15,29.82V614Z"/><path class="cls-1" d="M682.26,678.8v3.46H678.8C680,681.13,681.13,680,682.26,678.8Z"/><path class="cls-1" d="M750.48,614v68.23H682.26V678.8a238.41,238.41,0,0,0,25.41-30.65q4.58-6.54,8.7-13.4Q722.43,624.7,727.5,614Z"/><path class="cls-1" d="M477.58,748.07v2.42H409.35v-23a235,235,0,0,0,34.12,13.1A237.87,237.87,0,0,0,477.58,748.07Z"/><path class="cls-1" d="M511.69,750.49H477.58v-2.42A239.85,239.85,0,0,0,511.69,750.49Z"/><path class="cls-1" d="M545.8,748.07v2.42H511.69A239.85,239.85,0,0,0,545.8,748.07Z"/><path class="cls-1" d="M614,727.5v23H545.8v-2.42a238,238,0,0,0,34.12-7.47A235.34,235.34,0,0,0,614,727.5Z"/><path class="cls-1" d="M682.26,682.26v68.23H614v-23q10.66-5.06,20.73-11.13,6.86-4.12,13.38-8.69a237.89,237.89,0,0,0,30.66-25.42Z"/><rect class="cls-1" x="682.26" y="682.26" width="68.23" height="68.23"/><path class="cls-3" d="M375.24,707.68q-6.53,4.58-13.38,8.69-10,6.06-20.73,11.13A235,235,0,0,1,307,740.6a239.87,239.87,0,0,1-136.45,0,235.34,235.34,0,0,1-34.11-13.1q-10.66-5.06-20.73-11.13-6.85-4.12-13.38-8.69a237.89,237.89,0,0,1-30.66-25.42c-1.17-1.13-2.33-2.29-3.46-3.46a238.41,238.41,0,0,1-25.41-30.65q-4.58-6.54-8.7-13.4Q28.05,624.7,23,614A237.09,237.09,0,0,1,2.42,545.81,239.85,239.85,0,0,1,0,511.7V0H102.34V511.7a136.48,136.48,0,0,0,4.3,34.11,135,135,0,0,0,14,34.11,136.65,136.65,0,0,0,152.3,63.93,135.13,135.13,0,0,0,32-12.74c.7,1.22,1.42,2.44,2.15,3.64q4.13,6.86,8.7,13.4a237.89,237.89,0,0,0,25.42,30.66q1.69,1.76,3.45,3.45A237.89,237.89,0,0,0,375.24,707.68Z"/><path class="cls-1" d="M375.24,315.72a238.41,238.41,0,0,0-30.65,25.41c-1.17,1.13-2.33,2.29-3.46,3.46a237.89,237.89,0,0,0-25.42,30.66q-4.57,6.54-8.7,13.4c-.73,1.2-1.45,2.42-2.15,3.64q-4.83,8.32-9,17.07a235.34,235.34,0,0,0-13.1,34.11A238.72,238.72,0,0,0,295.88,614q4.14,8.75,9,17.08A136.3,136.3,0,0,1,148.53,614a136.9,136.9,0,0,1-27.93-34.11,135,135,0,0,1-14-34.11,136.48,136.48,0,0,1-4.3-34.11v-196q6.54-4.58,13.4-8.7a238.31,238.31,0,0,1,54.82-24.22,237.87,237.87,0,0,1,34.11-7.47h0A239.81,239.81,0,0,1,307,282.8,238.16,238.16,0,0,1,361.84,307Q368.7,311.15,375.24,315.72Z"/><path class="cls-1" d="M477.58,511.7a238.92,238.92,0,0,1-9.89,68.22h9.89V545.81h34.11V511.7Zm0,0a238.92,238.92,0,0,1-9.89,68.22h9.89V545.81h34.11V511.7Zm270.48-34.12H643.83A136.08,136.08,0,0,0,614,421.45a137.94,137.94,0,0,0-12.09-12.09,136.7,136.7,0,0,0-124.36-29.81V511.7a238.92,238.92,0,0,1-9.89,68.22A236.46,236.46,0,0,1,454.6,614q-4.14,8.75-9,17.08A136.3,136.3,0,0,0,602,614a136.9,136.9,0,0,0,27.93-34.11,135,135,0,0,0,14-34.11H748.06a241.67,241.67,0,0,0,0-68.23ZM477.58,511.7a238.92,238.92,0,0,1-9.89,68.22h9.89V545.81h34.11V511.7Z"/><path class="cls-4" d="M712.85,382.65a237.4,237.4,0,0,1,28.9,65.13q3.12,11.39,5.07,23,1.33,7.89,2.14,15.83a238.5,238.5,0,0,1,.72,39.81c-.1,1.62-.22,3.26-.37,4.88a237.9,237.9,0,0,1-6.67,39.26q-2,7.72-4.48,15.32Q734.49,597,729.7,607.8A235.6,235.6,0,0,1,712.38,640a239.6,239.6,0,0,1-103.46,89,234.28,234.28,0,0,1-34.41,12.32q-11.38,3.12-23,5.08c-5.26.89-10.53,1.61-15.81,2.13a237.55,237.55,0,0,1-39.82.72c-1.63-.09-3.25-.22-4.87-.37a236.86,236.86,0,0,1-39.26-6.67q-7.74-2-15.34-4.49c-1.33-.43-2.67-.88-4-1.35q-9.09-3.16-17.95-7.1a237.52,237.52,0,0,1-60.07-38.32,240,240,0,0,1-61.06-82.46A236.44,236.44,0,0,1,281.05,574q-2.55-9.33-4.33-18.8c-.26-1.38-.51-2.77-.74-4.16q-1.34-7.89-2.14-15.83a237.55,237.55,0,0,1-.72-39.82c.1-1.62.22-3.26.37-4.88a237.79,237.79,0,0,1,6.67-39.25q2-7.74,4.49-15.33A231.78,231.78,0,0,1,293.1,414a235.75,235.75,0,0,1,17.33-32.18,240,240,0,0,1,103.45-89,236.14,236.14,0,0,1,34.41-12.31q11.37-3.1,22.95-5.07,7.89-1.33,15.83-2.14a238.48,238.48,0,0,1,39.81-.72c1.63.1,3.26.23,4.89.37A237.79,237.79,0,0,1,571,279.67q7.74,2,15.34,4.49a238.23,238.23,0,0,1,54.1,25.77,237.81,237.81,0,0,1,27.91,21l-79,68a136.18,136.18,0,0,0-59.19-23.12,139.3,139.3,0,0,0-17-1.29A136.73,136.73,0,0,0,399.37,433a135,135,0,0,0-15.92,30.49c-.29.77-.57,1.55-.84,2.33a137.08,137.08,0,0,0-6.37,26.38,138.84,138.84,0,0,0-1.28,17,136.7,136.7,0,0,0,58.48,113.73,136.45,136.45,0,0,0,59.21,23.13A137,137,0,0,0,536.74,645c.81-.14,1.62-.3,2.42-.47a135.87,135.87,0,0,0,61.21-30.16,137,137,0,0,0,23.06-25.5,136.43,136.43,0,0,0,23.13-59.22,138.68,138.68,0,0,0,1.28-17,136.62,136.62,0,0,0-2.35-27,134.9,134.9,0,0,0-11.65-35Z"/><path class="cls-1" d="M295.88,614q4.14,8.75,9,17.08A136.3,136.3,0,0,1,148.53,614a136.9,136.9,0,0,1-27.93-34.11,135,135,0,0,1-14-34.11,136.29,136.29,0,0,1,29.81-124.36,137.94,137.94,0,0,1,12.09-12.09,136.23,136.23,0,0,1,56.13-29.81h0a136.36,136.36,0,0,1,100.18,12.74q-4.83,8.32-9,17.07a235.34,235.34,0,0,0-13.1,34.11A238.72,238.72,0,0,0,295.88,614Z"/><path class="cls-1" d="M648.14,511.7a136.48,136.48,0,0,1-4.3,34.11,135,135,0,0,1-14,34.11,136.65,136.65,0,0,1-152.3,63.93,135.13,135.13,0,0,1-32-12.74q4.83-8.33,9-17.08a237.09,237.09,0,0,0,20.56-68.22,239.85,239.85,0,0,0,2.42-34.11V379.55a136.29,136.29,0,0,1,124.36,29.81A137.94,137.94,0,0,1,614,421.45a136.07,136.07,0,0,1,34.11,90.25Z"/></g></g></svg>